<svg version="1.1" xmlns="http://www.w3.org/2000/svg" xmlns:xlink="http://www.w3.org/1999/xlink" width="500" height="500"><defs><clipPath id="clip-1"><rect x="30.67928" y="15.13586" transform="scale(3.30341,3.30341)" width="90" height="90"></rect></clipPath><linearGradient x1="64.18296" y1="50" x2="64.18296" y2="450" gradientUnits="userSpaceOnUse" id="color-1"><stop offset="0" stop-color="#1d1801"></stop><stop offset="1" stop-color="#161d01"></stop></linearGradient></defs><g data-paper-data="{&quot;description&quot;:&quot;Logo for FundFun\n================\n\nThis logo was generated by MarkMaker at http://emblemmatic.org/markmaker/ and may be composed of elements designed by others.\n\nThe font is Henny Penny designed by Brownfox and released under the OFL license via Google Fonts: https://www.google.com/fonts/specimen/Henny%20Penny. The font includes this copyright statement: Copyright (c) 2012, Brownfox (gayaneh.b@gmail.com), with Reserved Font Name \\\&quot;Henny Penny\\\n\nThe symbol is 'bunny' designed by Stefania Bonacasa and released into the public domain at the Noun Project: https://thenounproject.com/term/bunny/136632.\n\nMarkMaker uses semantic data from the Princeton University WordNet database http://wordnet.princeton.edu and font descriptions from Google Fonts https://www.google.com/fonts.&quot;}" fill="none" fill-rule="nonzero" stroke="none" stroke-width="1" stroke-linecap="butt" stroke-linejoin="miter" stroke-miterlimit="10" stroke-dasharray="" stroke-dashoffset="0" font-family="none" font-weight="none" font-size="none" text-anchor="none" style="mix-blend-mode: normal"><g data-paper-data="{&quot;elementType&quot;:&quot;logo&quot;}" fill="#180823"><g data-paper-data="{&quot;elementType&quot;:&quot;text&quot;}"><g data-paper-data="{&quot;baseline&quot;:99.12109375,&quot;elementType&quot;:&quot;row&quot;}"><g data-paper-data="{&quot;baselineProportion&quot;:0.9629981024667932,&quot;fontSize&quot;:100,&quot;baseline&quot;:99.12109375,&quot;elementType&quot;:&quot;word&quot;}"><path d="M112.27766,368.1618c0.69637,0 1.27919,0.20437 1.74849,0.61311c0.46929,0.40874 0.70394,1.18836 0.70394,2.33888c0,0.81747 -0.10597,1.88473 -0.31791,3.20177c-0.21194,1.31704 -0.45415,2.64165 -0.72664,3.97383c-0.27249,1.33218 -0.53741,2.55082 -0.79477,3.65592c-0.25735,1.1051 -0.43144,1.86959 -0.52227,2.29347c-0.06055,0.27249 -0.17409,0.74178 -0.34061,1.40787c-0.16652,0.66609 -0.37846,1.40787 -0.63581,2.22535c-0.25735,0.81747 -0.52984,1.66522 -0.81747,2.54325c-0.28763,0.87803 -0.58283,1.68036 -0.8856,2.40701c-0.30277,0.72664 -0.59797,1.32461 -0.8856,1.7939c-0.28763,0.46929 -0.55255,0.70394 -0.79477,0.70394c-0.15138,0 -0.28006,-0.07569 -0.38603,-0.22708c-0.10597,-0.15138 -0.15895,-0.48443 -0.15895,-0.99913c0,-0.51471 0.04542,-1.23378 0.13625,-2.15722c0.09083,-0.92344 0.18166,-1.95285 0.27249,-3.08823c0.09083,-1.13538 0.18166,-2.31618 0.27249,-3.54239c0.09083,-1.22621 0.13625,-2.3843 0.13625,-3.47426c0,-1.66522 -0.17409,-2.9747 -0.52227,-3.92842c-0.34818,-0.95372 -0.84775,-1.68036 -1.4987,-2.17993c-0.65095,-0.49957 -1.43815,-0.81747 -2.36159,-0.95372c-0.92344,-0.13625 -1.94528,-0.20437 -3.06553,-0.20437c-1.48356,0 -3.12608,0.0984 -4.92755,0.2952c-1.80147,0.1968 -3.50454,0.50714 -5.10921,0.93101c-1.33218,0.33304 -2.20264,0.9083 -2.61137,1.72578c-0.40874,0.81747 -0.61311,1.87716 -0.61311,3.17906c0,0.21194 0.01514,1.05969 0.04542,2.54325c0.03028,1.48356 0.07569,3.391 0.13625,5.72232c0.06055,2.33131 0.12868,5.00324 0.20437,8.01578c0.07569,3.01254 0.15895,6.13862 0.24978,9.37824c0.84775,-0.06055 1.71064,-0.14381 2.58867,-0.24978c0.87803,-0.10597 1.61981,-0.2952 2.22535,-0.56769c0.63581,-0.27249 1.17323,-0.62824 1.61224,-1.06726c0.43901,-0.43901 0.79477,-0.9083 1.06726,-1.40787c0.27249,-0.49957 0.492,-1.0067 0.65852,-1.52141c0.16652,-0.51471 0.2952,-0.984 0.38603,-1.40787c0.48443,-1.93772 0.86289,-3.30774 1.13538,-4.11008c0.27249,-0.80234 0.63581,-1.2035 1.08996,-1.2035c0.57526,0 0.86289,0.56012 0.86289,1.68036c0,0.54498 -0.06055,1.19593 -0.18166,1.95285c-0.12111,0.75692 -0.26492,1.61224 -0.43144,2.56596c-0.16652,0.95372 -0.31034,2.00584 -0.43144,3.15636c-0.12111,1.15052 -0.18166,2.37673 -0.18166,3.67863c0,1.1808 0.02271,2.39187 0.06812,3.63322c0.04542,1.24135 0.0984,2.39187 0.15895,3.45156c0.06055,1.05969 0.11354,2.00584 0.15895,2.83845c0.04542,0.83261 0.06812,1.43058 0.06812,1.7939c0,1.02941 -0.0984,1.80147 -0.2952,2.31618c-0.1968,0.51471 -0.46172,0.77206 -0.79477,0.77206c-0.36332,0 -0.66609,-0.28006 -0.9083,-0.84018c-0.24221,-0.56012 -0.37846,-1.64252 -0.40874,-3.24719c-0.03028,-1.1808 -0.0984,-2.26319 -0.20437,-3.24719c-0.10597,-0.984 -0.30277,-1.84689 -0.5904,-2.58867c-0.28763,-0.74178 -0.6888,-1.36246 -1.2035,-1.86202c-0.51471,-0.49957 -1.1808,-0.8856 -1.99827,-1.15809c-0.51471,-0.15138 -1.17323,-0.24978 -1.97556,-0.2952c-0.80234,-0.04542 -1.5971,-0.06812 -2.3843,-0.06812c0.09083,3.23962 0.18923,6.4641 0.2952,9.67344c0.10597,3.20934 0.20437,6.18404 0.2952,8.92409c0.09083,2.74005 0.18166,5.13949 0.27249,7.19831c0.09083,2.05882 0.16652,3.55752 0.22708,4.49611c0.09083,1.45329 0.27249,2.62651 0.54498,3.51968c0.27249,0.89317 0.63581,1.61224 1.08996,2.15722c0.45415,0.54498 0.984,0.95372 1.58953,1.22621c0.60554,0.27249 1.3019,0.51471 2.0891,0.72664c0.27249,0.09083 0.57526,0.16652 0.9083,0.22708c0.33304,0.06055 0.65852,0.15138 0.97643,0.27249c0.31791,0.12111 0.58283,0.26492 0.79477,0.43144c0.21194,0.16652 0.31791,0.38603 0.31791,0.65852c0,0.27249 -0.08326,0.48443 -0.24978,0.63581c-0.16652,0.15138 -0.37846,0.26492 -0.63581,0.34061c-0.25735,0.07569 -0.52984,0.12111 -0.81747,0.13625c-0.28763,0.01514 -0.56769,0.02271 -0.84018,0.02271c-0.45415,0 -1.08996,-0.05298 -1.90744,-0.15895c-0.81747,-0.10597 -1.75605,-0.21194 -2.81574,-0.31791c-1.05969,-0.10597 -2.19507,-0.21194 -3.40614,-0.31791c-1.21107,-0.10597 -2.43728,-0.15895 -3.67863,-0.15895c-1.12024,0 -2.19507,0.03785 -3.22448,0.11354c-1.02941,0.07569 -2.0891,0.16652 -3.17906,0.27249c-1.08996,0.10597 -2.22535,0.1968 -3.40614,0.27249c-1.1808,0.07569 -2.46756,0.11354 -3.86029,0.11354c-0.84775,0 -1.52898,-0.04542 -2.04368,-0.13625c-0.51471,-0.09083 -0.9083,-0.20437 -1.1808,-0.34061c-0.27249,-0.13625 -0.45415,-0.2952 -0.54498,-0.47686c-0.09083,-0.18166 -0.13625,-0.36332 -0.13625,-0.54498c0,-0.69637 0.56012,-1.13538 1.68036,-1.31704c0.27249,-0.03028 0.7115,-0.06812 1.31704,-0.11354c0.60554,-0.04542 1.27919,-0.0984 2.02098,-0.15895c0.74178,-0.06055 1.50627,-0.14381 2.29347,-0.24978c0.7872,-0.10597 1.48356,-0.23465 2.0891,-0.38603c0.63581,-0.18166 1.27163,-0.43144 1.90744,-0.74935c0.63581,-0.31791 1.19593,-0.75692 1.68036,-1.31704c0.48443,-0.56012 0.87803,-1.3019 1.1808,-2.22535c0.30277,-0.92344 0.45415,-2.09667 0.45415,-3.51968c0,-2.42214 -0.0984,-5.20761 -0.2952,-8.3564c-0.1968,-3.14879 -0.45415,-6.42625 -0.77206,-9.83239c-0.31791,-3.40614 -0.68123,-6.82742 -1.08996,-10.26384c-0.40874,-3.43642 -0.83261,-6.69117 -1.27163,-9.76427c-0.43901,-3.0731 -0.87046,-5.82828 -1.29433,-8.26557c-0.42388,-2.43728 -0.80234,-4.36743 -1.13538,-5.79044c-0.27249,-1.15052 -0.66609,-2.08153 -1.1808,-2.79304c-0.51471,-0.7115 -1.09753,-1.27163 -1.74849,-1.68036c-0.65095,-0.40874 -1.36246,-0.7115 -2.13451,-0.9083c-0.77206,-0.1968 -1.56682,-0.35575 -2.3843,-0.47686c-0.87803,-0.15138 -1.58196,-0.34818 -2.11181,-0.5904c-0.52984,-0.24221 -0.79477,-0.63581 -0.79477,-1.1808c0,-0.51471 0.20437,-0.86289 0.61311,-1.04455c0.40874,-0.18166 0.90073,-0.27249 1.47599,-0.27249c2.57353,0 5.79801,-0.18166 9.67344,-0.54498c3.87543,-0.36332 8.26557,-1.1051 13.17041,-2.22535c3.7846,-0.84775 6.9561,-1.65009 9.51449,-2.40701c2.55839,-0.75692 4.70047,-1.40787 6.42625,-1.95285c1.72578,-0.54498 3.14122,-0.97643 4.24632,-1.29433c1.1051,-0.31791 2.09667,-0.47686 2.9747,-0.47686z" data-paper-data="{&quot;elementType&quot;:&quot;letter&quot;,&quot;baseline&quot;:84.1796875,&quot;baselineProportion&quot;:0.9567147613762487,&quot;fontSize&quot;:100}"></path><path d="M125.43318,395.95591c0.18166,0 0.34818,0.13625 0.49957,0.40874c0.15138,0.27249 0.31791,0.96886 0.49957,2.0891c0.42388,2.54325 0.7872,4.84429 1.08996,6.90311c0.30277,2.05882 0.62067,3.95112 0.95372,5.6769c0.72664,3.96626 1.44572,7.50865 2.15722,10.62716c0.7115,3.11851 1.55169,5.75259 2.52054,7.90225c0.96886,2.14965 2.15722,3.7846 3.56509,4.90484c1.40787,1.12024 3.18663,1.68036 5.33629,1.68036c1.54412,0 2.89143,-0.35575 4.04195,-1.06726c1.15052,-0.7115 2.12695,-1.66522 2.92928,-2.86116c0.80234,-1.19593 1.46086,-2.56596 1.97556,-4.11008c0.51471,-1.54412 0.91587,-3.14122 1.2035,-4.7913c0.28763,-1.65009 0.48443,-3.30017 0.5904,-4.95026c0.10597,-1.65009 0.15895,-3.1715 0.15895,-4.56423c0,-1.3019 -0.03028,-2.58867 -0.09083,-3.86029c-0.06055,-1.27163 -0.27249,-2.41458 -0.63581,-3.42885c-0.36332,-1.01427 -0.93101,-1.83175 -1.70307,-2.45242c-0.77206,-0.62067 -1.88473,-0.93101 -3.33802,-0.93101c-0.87803,0 -1.77119,0.07569 -2.6795,0.22708c-0.9083,0.15138 -1.78633,0.22708 -2.63408,0.22708c-0.42388,0 -0.77963,-0.09083 -1.06726,-0.27249c-0.28763,-0.18166 -0.43144,-0.46929 -0.43144,-0.86289c0,-0.45415 0.16652,-0.76449 0.49957,-0.93101c0.33304,-0.16652 0.75692,-0.28006 1.27163,-0.34061c0.54498,-0.03028 1.1808,-0.07569 1.90744,-0.13625c0.72664,-0.06055 1.52141,-0.15895 2.3843,-0.2952c0.86289,-0.13625 1.77876,-0.31791 2.74762,-0.54498c0.96886,-0.22708 1.96799,-0.55255 2.9974,-0.97643c0.84775,-0.36332 1.65766,-0.7872 2.42971,-1.27163c0.77206,-0.48443 1.46842,-0.94615 2.0891,-1.38516c0.62067,-0.43901 1.16566,-0.8099 1.63495,-1.11267c0.46929,-0.30277 0.84018,-0.45415 1.11267,-0.45415c0.33304,0 0.55255,0.26492 0.65852,0.79477c0.10597,0.52984 0.20437,1.26406 0.2952,2.20264c0.12111,1.27163 0.24978,2.93685 0.38603,4.99567c0.13625,2.05882 0.30277,4.32958 0.49957,6.81228c0.1968,2.4827 0.42388,5.07893 0.68123,7.78871c0.25735,2.70977 0.56769,5.3817 0.93101,8.01578c0.18166,1.39273 0.43901,2.52054 0.77206,3.38343c0.33304,0.86289 0.72664,1.53655 1.1808,2.02098c0.45415,0.48443 0.96129,0.8099 1.52141,0.97643c0.56012,0.16652 1.17323,0.24978 1.83932,0.24978c1.36246,0 2.61137,-0.11354 3.74675,-0.34061c1.13538,-0.22708 1.9907,-0.34061 2.56596,-0.34061c0.57526,0 0.95372,0.10597 1.13538,0.31791c0.18166,0.21194 0.27249,0.45415 0.27249,0.72664c0,0.27249 -0.09083,0.53741 -0.27249,0.79477c-0.18166,0.25735 -0.56012,0.46172 -1.13538,0.61311c-0.84775,0.18166 -2.01341,0.35575 -3.49697,0.52227c-1.48356,0.16652 -3.23962,0.38603 -5.26816,0.65852c-1.63495,0.24221 -3.03525,0.50714 -4.20091,0.79477c-1.16566,0.28763 -2.08153,0.43144 -2.74762,0.43144c-0.66609,0 -1.17323,-0.15138 -1.52141,-0.45415c-0.34818,-0.30277 -0.61311,-0.89317 -0.79477,-1.77119c-0.18166,-0.87803 -0.36332,-1.83932 -0.54498,-2.88387c-0.18166,-1.04455 -0.35575,-2.09667 -0.52227,-3.15636c-0.16652,-1.05969 -0.33304,-2.11938 -0.49957,-3.17906c-0.16652,-1.05969 -0.32548,-2.05882 -0.47686,-2.9974c-0.24221,1.63495 -0.54498,3.33045 -0.9083,5.0865c-0.36332,1.75605 -0.84018,3.47426 -1.43058,5.15463c-0.5904,1.68036 -1.3019,3.26989 -2.13451,4.7686c-0.83261,1.4987 -1.83932,2.80817 -3.02011,3.92842c-1.1808,1.12024 -2.55082,2.01341 -4.11008,2.6795c-1.55926,0.66609 -3.33802,0.99913 -5.33629,0.99913c-3.26989,0 -6.06293,-0.87046 -8.37911,-2.61137c-2.31618,-1.74092 -4.0798,-4.21604 -5.29087,-7.42539c-0.69637,-1.75605 -1.25649,-3.61808 -1.68036,-5.58607c-0.42388,-1.96799 -0.77206,-3.89057 -1.04455,-5.76773c-0.27249,-1.87716 -0.492,-3.62565 -0.65852,-5.24546c-0.16652,-1.61981 -0.34061,-2.9747 -0.52227,-4.06466c-0.18166,-1.12024 -0.41631,-2.05125 -0.70394,-2.79304c-0.28763,-0.74178 -0.61311,-1.32461 -0.97643,-1.74849c-0.36332,-0.42388 -0.76449,-0.71907 -1.2035,-0.8856c-0.43901,-0.16652 -0.90073,-0.24978 -1.38516,-0.24978c-0.48443,0 -1.0067,0.06812 -1.56682,0.20437c-0.56012,0.13625 -1.12024,0.28763 -1.68036,0.45415c-0.56012,0.16652 -1.09753,0.31791 -1.61224,0.45415c-0.51471,0.13625 -0.984,0.20437 -1.40787,0.20437c-0.27249,0 -0.55255,-0.08326 -0.84018,-0.24978c-0.28763,-0.16652 -0.43144,-0.492 -0.43144,-0.97643c0,-0.54498 0.24221,-0.91587 0.72664,-1.11267c0.48443,-0.1968 1.1051,-0.41631 1.86202,-0.65852c0.93858,-0.27249 2.05125,-0.68123 3.33802,-1.22621c1.28676,-0.54498 2.65679,-1.3019 4.11008,-2.27076c1.21107,-0.81747 2.21778,-1.64252 3.02011,-2.47513c0.80234,-0.83261 1.46842,-1.58953 1.99827,-2.27076c0.52984,-0.68123 0.96886,-1.24135 1.31704,-1.68036c0.34818,-0.43901 0.65852,-0.65852 0.93101,-0.65852z" data-paper-data="{&quot;elementType&quot;:&quot;letter&quot;,&quot;baseline&quot;:55.322265625,&quot;baselineProportion&quot;:1.0375457875457876,&quot;fontSize&quot;:100}"></path><path d="M185.13927,387.96283c0.24221,0 0.48443,0.38603 0.72664,1.15809c0.24221,0.77206 0.48443,1.77876 0.72664,3.02011c0.24221,1.24135 0.48443,2.67193 0.72664,4.29174c0.24221,1.61981 0.48443,3.26233 0.72664,4.92755l1.63495,11.44463c0.15138,-0.99913 0.41631,-2.14965 0.79477,-3.45156c0.37846,-1.3019 0.8856,-2.64922 1.52141,-4.04195c0.63581,-1.39273 1.40787,-2.75519 2.31618,-4.08737c0.9083,-1.33218 1.96042,-2.52811 3.15636,-3.5878c1.19593,-1.05969 2.54325,-1.91501 4.04195,-2.56596c1.4987,-0.65095 3.1715,-0.97643 5.01838,-0.97643c2.27076,0 4.23875,0.43144 5.90398,1.29433c1.66522,0.86289 3.04282,2.05882 4.13278,3.5878c1.08996,1.52898 1.8923,3.35316 2.40701,5.47253c0.51471,2.11938 0.77206,4.43555 0.77206,6.94853c0,2.27076 -0.12868,4.54909 -0.38603,6.83499c-0.25735,2.2859 -0.52984,4.53395 -0.81747,6.74416c-0.28763,2.21021 -0.56012,4.34472 -0.81747,6.40354c-0.25735,2.05882 -0.38603,3.9814 -0.38603,5.76773c0,1.05969 0.09083,1.98313 0.27249,2.77033c0.18166,0.7872 0.45415,1.51384 0.81747,2.17993c0.42388,0.63581 0.94615,1.18836 1.56682,1.65766c0.62067,0.46929 1.21107,0.9083 1.77119,1.31704c0.56012,0.40874 1.04455,0.81747 1.45329,1.22621c0.40874,0.40874 0.61311,0.84018 0.61311,1.29433c0,0.27249 -0.07569,0.50714 -0.22708,0.70394c-0.15138,0.1968 -0.40874,0.2952 -0.77206,0.2952c-0.54498,0 -1.14295,-0.20437 -1.7939,-0.61311c-0.65095,-0.40874 -1.45329,-0.92344 -2.40701,-1.54412c-0.95372,-0.62067 -2.09667,-1.28676 -3.42885,-1.99827c-1.33218,-0.7115 -2.95199,-1.37003 -4.85943,-1.97556c-1.42301,-0.48443 -2.85359,-0.86289 -4.29174,-1.13538c-1.43815,-0.27249 -3.11094,-0.45415 -5.01838,-0.54498c-1.05969,-0.09083 -1.58953,-0.3936 -1.58953,-0.9083c0,-0.57526 0.34818,-0.86289 1.04455,-0.86289c0.42388,0 1.01427,0 1.77119,0c0.75692,0 1.52898,-0.03028 2.31618,-0.09083c1.21107,-0.09083 2.21021,-0.46172 2.9974,-1.11267c0.7872,-0.65095 1.37759,-1.85445 1.77119,-3.61051c0.12111,-0.69637 0.24221,-1.58196 0.36332,-2.65679c0.12111,-1.07483 0.22708,-2.22535 0.31791,-3.45156c0.09083,-1.22621 0.16652,-2.47513 0.22708,-3.74675c0.06055,-1.27163 0.09083,-2.4827 0.09083,-3.63322c0,-1.02941 -0.01514,-2.21778 -0.04542,-3.56509c-0.03028,-1.34732 -0.12868,-2.74762 -0.2952,-4.20091c-0.16652,-1.45329 -0.42388,-2.8763 -0.77206,-4.26903c-0.34818,-1.39273 -0.85532,-2.63408 -1.52141,-3.72405c-0.66609,-1.08996 -1.51384,-1.97556 -2.54325,-2.65679c-1.02941,-0.68123 -2.2859,-1.02184 -3.76946,-1.02184c-1.27163,0 -2.42971,0.31791 -3.47426,0.95372c-1.04455,0.63581 -1.97556,1.52141 -2.79304,2.65679c-0.81747,1.13538 -1.51384,2.47513 -2.0891,4.01925c-0.57526,1.54412 -1.01427,3.23962 -1.31704,5.0865c-0.33304,1.87716 -0.55255,3.80731 -0.65852,5.79044c-0.10597,1.98313 -0.15895,3.95869 -0.15895,5.92668c0,1.66522 0.06055,3.26233 0.18166,4.7913c0.12111,1.52898 0.28763,2.93685 0.49957,4.22361c0.21194,1.28676 0.46929,2.42971 0.77206,3.42885c0.30277,0.99913 0.65095,1.78633 1.04455,2.36159c0.57526,0.7872 1.19593,1.37759 1.86202,1.77119c0.66609,0.3936 1.22621,0.66609 1.68036,0.81747c0.60554,0.18166 1.03698,0.34061 1.29433,0.47686c0.25735,0.13625 0.38603,0.32548 0.38603,0.56769c0,0.18166 -0.14381,0.34818 -0.43144,0.49957c-0.28763,0.15138 -0.76449,0.22708 -1.43058,0.22708c-0.63581,0 -1.33218,-0.05298 -2.0891,-0.15895c-0.75692,-0.10597 -1.54412,-0.21951 -2.36159,-0.34061c-0.81747,-0.12111 -1.66522,-0.23465 -2.54325,-0.34061c-0.87803,-0.10597 -1.74092,-0.15895 -2.58867,-0.15895c-0.84775,0 -1.71064,0.03028 -2.58867,0.09083c-0.87803,0.06055 -1.71821,0.12111 -2.52054,0.18166c-0.80234,0.06055 -1.53655,0.12111 -2.20264,0.18166c-0.66609,0.06055 -1.19593,0.09083 -1.58953,0.09083c-1.1808,0 -1.77119,-0.37846 -1.77119,-1.13538c0,-0.27249 0.0984,-0.50714 0.2952,-0.70394c0.1968,-0.1968 0.55255,-0.32548 1.06726,-0.38603c0.42388,-0.03028 0.80234,-0.06055 1.13538,-0.09083c0.33304,-0.03028 0.67366,-0.05298 1.02184,-0.06812c0.34818,-0.01514 0.7115,-0.03785 1.08996,-0.06812c0.37846,-0.03028 0.82504,-0.07569 1.33975,-0.13625c0.96886,-0.15138 1.62738,-0.50714 1.97556,-1.06726c0.34818,-0.56012 0.52227,-1.32461 0.52227,-2.29347c0,-1.66522 -0.14381,-3.69377 -0.43144,-6.08564c-0.28763,-2.39187 -0.67366,-5.02595 -1.15809,-7.90225c-0.48443,-2.8763 -1.06726,-5.92668 -1.74849,-9.15116c-0.68123,-3.22448 -1.4003,-6.51708 -2.15722,-9.87781c-0.36332,-1.72578 -0.77963,-3.01254 -1.24892,-3.86029c-0.46929,-0.84775 -1.14295,-1.27163 -2.02098,-1.27163c-0.45415,0 -0.92344,0.08326 -1.40787,0.24978c-0.48443,0.16652 -0.96129,0.34818 -1.43058,0.54498c-0.46929,0.1968 -0.91587,0.37846 -1.33975,0.54498c-0.42388,0.16652 -0.81747,0.24978 -1.1808,0.24978c-0.57526,0 -0.86289,-0.24221 -0.86289,-0.72664c0,-0.3936 0.15895,-0.67366 0.47686,-0.84018c0.31791,-0.16652 0.65852,-0.32548 1.02184,-0.47686c0.84775,-0.33304 1.76362,-0.75692 2.74762,-1.27163c0.984,-0.51471 2.05125,-1.21107 3.20177,-2.0891c1.12024,-0.87803 2.11938,-1.81661 2.9974,-2.81574c0.87803,-0.99913 1.63495,-1.92258 2.27076,-2.77033c0.63581,-0.84775 1.15052,-1.55169 1.54412,-2.11181c0.3936,-0.56012 0.69637,-0.84018 0.9083,-0.84018z" data-paper-data="{&quot;elementType&quot;:&quot;letter&quot;,&quot;baseline&quot;:62.890625,&quot;baselineProportion&quot;:0.9647940074906367,&quot;fontSize&quot;:100}"></path><path d="M266.78092,354.26475c0.24221,0 0.40117,0.21951 0.47686,0.65852c0.07569,0.43901 0.11354,1.03698 0.11354,1.7939c0,2.36159 -0.02271,4.91241 -0.06812,7.65246c-0.04542,2.74005 -0.0984,5.60121 -0.15895,8.58347c-0.06055,2.98227 -0.12868,6.04022 -0.20437,9.17387c-0.07569,3.13365 -0.15895,6.25973 -0.24978,9.37824c-0.09083,4.39014 -0.18166,8.6743 -0.27249,12.8525c-0.09083,4.1782 -0.16652,8.01578 -0.22708,11.51275c-0.06055,3.49697 -0.11354,6.54736 -0.15895,9.15116c-0.04542,2.60381 -0.06812,4.54152 -0.06812,5.81315c0,1.45329 0.12111,2.64922 0.36332,3.5878c0.24221,0.93858 0.56012,1.70307 0.95372,2.29347c0.3936,0.5904 0.85532,1.03698 1.38516,1.33975c0.52984,0.30277 1.0824,0.56012 1.65766,0.77206c0.75692,0.27249 1.49113,0.46172 2.20264,0.56769c0.7115,0.10597 1.33975,0.18923 1.88473,0.24978c0.54498,0.06055 0.97643,0.15138 1.29433,0.27249c0.31791,0.12111 0.47686,0.34818 0.47686,0.68123c0,0.45415 -0.32548,0.74178 -0.97643,0.86289c-0.65095,0.12111 -1.33975,0.18166 -2.06639,0.18166c-1.02941,0 -2.45242,-0.08326 -4.26903,-0.24978c-1.81661,-0.16652 -3.90571,-0.24978 -6.2673,-0.24978c-1.15052,0 -2.30104,0.06055 -3.45156,0.18166c-1.15052,0.12111 -2.36916,0.24978 -3.65592,0.38603c-1.28676,0.13625 -2.69464,0.26492 -4.22361,0.38603c-1.52898,0.12111 -3.26233,0.18166 -5.20004,0.18166c-2.72491,0 -5.2833,-0.33304 -7.67517,-0.99913c-2.39187,-0.66609 -4.48097,-1.71821 -6.2673,-3.15636c-1.78633,-1.43815 -3.1942,-3.30017 -4.22361,-5.58607c-1.02941,-2.2859 -1.54412,-5.04866 -1.54412,-8.28828c0,-2.8763 0.52227,-5.44226 1.56682,-7.69788c1.04455,-2.25562 2.46756,-4.15549 4.26903,-5.69961c1.80147,-1.54412 3.90571,-2.72491 6.31271,-3.54239c2.40701,-0.81747 4.95783,-1.22621 7.65246,-1.22621c2.81574,0 5.16976,0.22708 7.06206,0.68123c1.8923,0.45415 3.41371,0.9083 4.56423,1.36246c0,-2.90657 -0.03028,-5.86613 -0.09083,-8.87867c-0.06055,-3.01254 -0.12868,-5.94939 -0.20437,-8.81055c-0.07569,-2.86116 -0.15138,-5.56336 -0.22708,-8.10661c-0.07569,-2.54325 -0.15138,-4.78374 -0.22708,-6.72145c-0.07569,-1.93772 -0.14381,-3.51211 -0.20437,-4.72318c-0.06055,-1.21107 -0.09083,-1.90744 -0.09083,-2.0891c-0.03028,-0.45415 -0.06812,-0.90073 -0.11354,-1.33975c-0.04542,-0.43901 -0.12111,-0.83261 -0.22708,-1.1808c-0.10597,-0.34818 -0.26492,-0.62067 -0.47686,-0.81747c-0.21194,-0.1968 -0.49957,-0.2952 -0.86289,-0.2952c-0.45415,0 -0.96886,0.0984 -1.54412,0.2952c-0.57526,0.1968 -1.15809,0.40874 -1.74849,0.63581c-0.5904,0.22708 -1.17323,0.43901 -1.74849,0.63581c-0.57526,0.1968 -1.08996,0.2952 -1.54412,0.2952c-0.27249,0 -0.52984,-0.05298 -0.77206,-0.15895c-0.24221,-0.10597 -0.36332,-0.32548 -0.36332,-0.65852c0,-0.3936 0.14381,-0.7115 0.43144,-0.95372c0.28763,-0.24221 0.70394,-0.48443 1.24892,-0.72664c0.3936,-0.18166 0.84775,-0.35575 1.36246,-0.52227c0.51471,-0.16652 1.14295,-0.40874 1.88473,-0.72664c0.74178,-0.31791 1.62738,-0.72664 2.65679,-1.22621c1.02941,-0.49957 2.25562,-1.17323 3.67863,-2.02098c1.39273,-0.81747 2.56596,-1.57439 3.51968,-2.27076c0.95372,-0.69637 1.74092,-1.3019 2.36159,-1.81661c0.62067,-0.51471 1.1051,-0.92344 1.45329,-1.22621c0.34818,-0.30277 0.62824,-0.45415 0.84018,-0.45415M258.15203,429.42691c0,-1.33218 -0.00757,-2.7779 -0.02271,-4.33715c-0.01514,-1.55926 -0.03028,-3.14879 -0.04542,-4.7686c-0.01514,-1.61981 -0.04542,-3.23205 -0.09083,-4.83672c-0.04542,-1.60467 -0.08326,-3.11851 -0.11354,-4.54152c-0.93858,-0.48443 -2.0891,-0.8856 -3.45156,-1.2035c-1.36246,-0.31791 -2.8763,-0.47686 -4.54152,-0.47686c-2.02855,0 -3.81488,0.34818 -5.35899,1.04455c-1.54412,0.69637 -2.84602,1.68036 -3.90571,2.95199c-1.05969,1.27163 -1.86202,2.8006 -2.40701,4.58694c-0.54498,1.78633 -0.81747,3.7846 -0.81747,5.99481c0,2.36159 0.25735,4.50367 0.77206,6.42625c0.51471,1.92258 1.27919,3.56509 2.29347,4.92755c1.01427,1.36246 2.29347,2.41458 3.83758,3.15636c1.54412,0.74178 3.34559,1.11267 5.40441,1.11267c1.75605,0 3.20177,-0.28006 4.33715,-0.84018c1.13538,-0.56012 2.00584,-1.26406 2.61137,-2.11181c0.60554,-0.84775 1.0067,-1.86202 1.2035,-3.04282c0.1968,-1.1808 0.2952,-2.52811 0.2952,-4.04195z" data-paper-data="{&quot;elementType&quot;:&quot;letter&quot;,&quot;baseline&quot;:99.12109375,&quot;baselineProportion&quot;:1.0474716202270382,&quot;fontSize&quot;:100}"></path><path d="M324.26167,368.1618c0.69637,0 1.27919,0.20437 1.74849,0.61311c0.46929,0.40874 0.70394,1.18836 0.70394,2.33888c0,0.81747 -0.10597,1.88473 -0.31791,3.20177c-0.21194,1.31704 -0.45415,2.64165 -0.72664,3.97383c-0.27249,1.33218 -0.53741,2.55082 -0.79477,3.65592c-0.25735,1.1051 -0.43144,1.86959 -0.52227,2.29347c-0.06055,0.27249 -0.17409,0.74178 -0.34061,1.40787c-0.16652,0.66609 -0.37846,1.40787 -0.63581,2.22535c-0.25735,0.81747 -0.52984,1.66522 -0.81747,2.54325c-0.28763,0.87803 -0.58283,1.68036 -0.8856,2.40701c-0.30277,0.72664 -0.59797,1.32461 -0.8856,1.7939c-0.28763,0.46929 -0.55255,0.70394 -0.79477,0.70394c-0.15138,0 -0.28006,-0.07569 -0.38603,-0.22708c-0.10597,-0.15138 -0.15895,-0.48443 -0.15895,-0.99913c0,-0.51471 0.04542,-1.23378 0.13625,-2.15722c0.09083,-0.92344 0.18166,-1.95285 0.27249,-3.08823c0.09083,-1.13538 0.18166,-2.31618 0.27249,-3.54239c0.09083,-1.22621 0.13625,-2.3843 0.13625,-3.47426c0,-1.66522 -0.17409,-2.9747 -0.52227,-3.92842c-0.34818,-0.95372 -0.84775,-1.68036 -1.4987,-2.17993c-0.65095,-0.49957 -1.43815,-0.81747 -2.36159,-0.95372c-0.92344,-0.13625 -1.94528,-0.20437 -3.06553,-0.20437c-1.48356,0 -3.12608,0.0984 -4.92755,0.2952c-1.80147,0.1968 -3.50454,0.50714 -5.10921,0.93101c-1.33218,0.33304 -2.20264,0.9083 -2.61137,1.72578c-0.40874,0.81747 -0.61311,1.87716 -0.61311,3.17906c0,0.21194 0.01514,1.05969 0.04542,2.54325c0.03028,1.48356 0.07569,3.391 0.13625,5.72232c0.06055,2.33131 0.12868,5.00324 0.20437,8.01578c0.07569,3.01254 0.15895,6.13862 0.24978,9.37824c0.84775,-0.06055 1.71064,-0.14381 2.58867,-0.24978c0.87803,-0.10597 1.61981,-0.2952 2.22535,-0.56769c0.63581,-0.27249 1.17323,-0.62824 1.61224,-1.06726c0.43901,-0.43901 0.79477,-0.9083 1.06726,-1.40787c0.27249,-0.49957 0.492,-1.0067 0.65852,-1.52141c0.16652,-0.51471 0.2952,-0.984 0.38603,-1.40787c0.48443,-1.93772 0.86289,-3.30774 1.13538,-4.11008c0.27249,-0.80234 0.63581,-1.2035 1.08996,-1.2035c0.57526,0 0.86289,0.56012 0.86289,1.68036c0,0.54498 -0.06055,1.19593 -0.18166,1.95285c-0.12111,0.75692 -0.26492,1.61224 -0.43144,2.56596c-0.16652,0.95372 -0.31034,2.00584 -0.43144,3.15636c-0.12111,1.15052 -0.18166,2.37673 -0.18166,3.67863c0,1.1808 0.02271,2.39187 0.06812,3.63322c0.04542,1.24135 0.0984,2.39187 0.15895,3.45156c0.06055,1.05969 0.11354,2.00584 0.15895,2.83845c0.04542,0.83261 0.06812,1.43058 0.06812,1.7939c0,1.02941 -0.0984,1.80147 -0.2952,2.31618c-0.1968,0.51471 -0.46172,0.77206 -0.79477,0.77206c-0.36332,0 -0.66609,-0.28006 -0.9083,-0.84018c-0.24221,-0.56012 -0.37846,-1.64252 -0.40874,-3.24719c-0.03028,-1.1808 -0.0984,-2.26319 -0.20437,-3.24719c-0.10597,-0.984 -0.30277,-1.84689 -0.5904,-2.58867c-0.28763,-0.74178 -0.6888,-1.36246 -1.2035,-1.86202c-0.51471,-0.49957 -1.1808,-0.8856 -1.99827,-1.15809c-0.51471,-0.15138 -1.17323,-0.24978 -1.97556,-0.2952c-0.80234,-0.04542 -1.5971,-0.06812 -2.3843,-0.06812c0.09083,3.23962 0.18923,6.4641 0.2952,9.67344c0.10597,3.20934 0.20437,6.18404 0.2952,8.92409c0.09083,2.74005 0.18166,5.13949 0.27249,7.19831c0.09083,2.05882 0.16652,3.55752 0.22708,4.49611c0.09083,1.45329 0.27249,2.62651 0.54498,3.51968c0.27249,0.89317 0.63581,1.61224 1.08996,2.15722c0.45415,0.54498 0.984,0.95372 1.58953,1.22621c0.60554,0.27249 1.3019,0.51471 2.0891,0.72664c0.27249,0.09083 0.57526,0.16652 0.9083,0.22708c0.33304,0.06055 0.65852,0.15138 0.97643,0.27249c0.31791,0.12111 0.58283,0.26492 0.79477,0.43144c0.21194,0.16652 0.31791,0.38603 0.31791,0.65852c0,0.27249 -0.08326,0.48443 -0.24978,0.63581c-0.16652,0.15138 -0.37846,0.26492 -0.63581,0.34061c-0.25735,0.07569 -0.52984,0.12111 -0.81747,0.13625c-0.28763,0.01514 -0.56769,0.02271 -0.84018,0.02271c-0.45415,0 -1.08996,-0.05298 -1.90744,-0.15895c-0.81747,-0.10597 -1.75605,-0.21194 -2.81574,-0.31791c-1.05969,-0.10597 -2.19507,-0.21194 -3.40614,-0.31791c-1.21107,-0.10597 -2.43728,-0.15895 -3.67863,-0.15895c-1.12024,0 -2.19507,0.03785 -3.22448,0.11354c-1.02941,0.07569 -2.0891,0.16652 -3.17906,0.27249c-1.08996,0.10597 -2.22535,0.1968 -3.40614,0.27249c-1.1808,0.07569 -2.46756,0.11354 -3.86029,0.11354c-0.84775,0 -1.52898,-0.04542 -2.04368,-0.13625c-0.51471,-0.09083 -0.9083,-0.20437 -1.1808,-0.34061c-0.27249,-0.13625 -0.45415,-0.2952 -0.54498,-0.47686c-0.09083,-0.18166 -0.13625,-0.36332 -0.13625,-0.54498c0,-0.69637 0.56012,-1.13538 1.68036,-1.31704c0.27249,-0.03028 0.7115,-0.06812 1.31704,-0.11354c0.60554,-0.04542 1.27919,-0.0984 2.02098,-0.15895c0.74178,-0.06055 1.50627,-0.14381 2.29347,-0.24978c0.7872,-0.10597 1.48356,-0.23465 2.0891,-0.38603c0.63581,-0.18166 1.27163,-0.43144 1.90744,-0.74935c0.63581,-0.31791 1.19593,-0.75692 1.68036,-1.31704c0.48443,-0.56012 0.87803,-1.3019 1.1808,-2.22535c0.30277,-0.92344 0.45415,-2.09667 0.45415,-3.51968c0,-2.42214 -0.0984,-5.20761 -0.2952,-8.3564c-0.1968,-3.14879 -0.45415,-6.42625 -0.77206,-9.83239c-0.31791,-3.40614 -0.68123,-6.82742 -1.08996,-10.26384c-0.40874,-3.43642 -0.83261,-6.69117 -1.27163,-9.76427c-0.43901,-3.0731 -0.87046,-5.82828 -1.29433,-8.26557c-0.42388,-2.43728 -0.80234,-4.36743 -1.13538,-5.79044c-0.27249,-1.15052 -0.66609,-2.08153 -1.1808,-2.79304c-0.51471,-0.7115 -1.09753,-1.27163 -1.74849,-1.68036c-0.65095,-0.40874 -1.36246,-0.7115 -2.13451,-0.9083c-0.77206,-0.1968 -1.56682,-0.35575 -2.3843,-0.47686c-0.87803,-0.15138 -1.58196,-0.34818 -2.11181,-0.5904c-0.52984,-0.24221 -0.79477,-0.63581 -0.79477,-1.1808c0,-0.51471 0.20437,-0.86289 0.61311,-1.04455c0.40874,-0.18166 0.90073,-0.27249 1.47599,-0.27249c2.57353,0 5.79801,-0.18166 9.67344,-0.54498c3.87543,-0.36332 8.26557,-1.1051 13.17041,-2.22535c3.7846,-0.84775 6.9561,-1.65009 9.51449,-2.40701c2.55839,-0.75692 4.70047,-1.40787 6.42625,-1.95285c1.72578,-0.54498 3.14122,-0.97643 4.24632,-1.29433c1.1051,-0.31791 2.09667,-0.47686 2.9747,-0.47686z" data-paper-data="{&quot;elementType&quot;:&quot;letter&quot;,&quot;baseline&quot;:84.1796875,&quot;baselineProportion&quot;:0.9567147613762487,&quot;fontSize&quot;:100}"></path><path d="M337.41719,395.95591c0.18166,0 0.34818,0.13625 0.49957,0.40874c0.15138,0.27249 0.31791,0.96886 0.49957,2.0891c0.42388,2.54325 0.7872,4.84429 1.08996,6.90311c0.30277,2.05882 0.62067,3.95112 0.95372,5.6769c0.72664,3.96626 1.44572,7.50865 2.15722,10.62716c0.7115,3.11851 1.55169,5.75259 2.52054,7.90225c0.96886,2.14965 2.15722,3.7846 3.56509,4.90484c1.40787,1.12024 3.18663,1.68036 5.33629,1.68036c1.54412,0 2.89143,-0.35575 4.04195,-1.06726c1.15052,-0.7115 2.12695,-1.66522 2.92928,-2.86116c0.80234,-1.19593 1.46086,-2.56596 1.97556,-4.11008c0.51471,-1.54412 0.91587,-3.14122 1.2035,-4.7913c0.28763,-1.65009 0.48443,-3.30017 0.5904,-4.95026c0.10597,-1.65009 0.15895,-3.1715 0.15895,-4.56423c0,-1.3019 -0.03028,-2.58867 -0.09083,-3.86029c-0.06055,-1.27163 -0.27249,-2.41458 -0.63581,-3.42885c-0.36332,-1.01427 -0.93101,-1.83175 -1.70307,-2.45242c-0.77206,-0.62067 -1.88473,-0.93101 -3.33802,-0.93101c-0.87803,0 -1.77119,0.07569 -2.6795,0.22708c-0.9083,0.15138 -1.78633,0.22708 -2.63408,0.22708c-0.42388,0 -0.77963,-0.09083 -1.06726,-0.27249c-0.28763,-0.18166 -0.43144,-0.46929 -0.43144,-0.86289c0,-0.45415 0.16652,-0.76449 0.49957,-0.93101c0.33304,-0.16652 0.75692,-0.28006 1.27163,-0.34061c0.54498,-0.03028 1.1808,-0.07569 1.90744,-0.13625c0.72664,-0.06055 1.52141,-0.15895 2.3843,-0.2952c0.86289,-0.13625 1.77876,-0.31791 2.74762,-0.54498c0.96886,-0.22708 1.96799,-0.55255 2.9974,-0.97643c0.84775,-0.36332 1.65766,-0.7872 2.42971,-1.27163c0.77206,-0.48443 1.46842,-0.94615 2.0891,-1.38516c0.62067,-0.43901 1.16566,-0.8099 1.63495,-1.11267c0.46929,-0.30277 0.84018,-0.45415 1.11267,-0.45415c0.33304,0 0.55255,0.26492 0.65852,0.79477c0.10597,0.52984 0.20437,1.26406 0.2952,2.20264c0.12111,1.27163 0.24978,2.93685 0.38603,4.99567c0.13625,2.05882 0.30277,4.32958 0.49957,6.81228c0.1968,2.4827 0.42388,5.07893 0.68123,7.78871c0.25735,2.70977 0.56769,5.3817 0.93101,8.01578c0.18166,1.39273 0.43901,2.52054 0.77206,3.38343c0.33304,0.86289 0.72664,1.53655 1.1808,2.02098c0.45415,0.48443 0.96129,0.8099 1.52141,0.97643c0.56012,0.16652 1.17323,0.24978 1.83932,0.24978c1.36246,0 2.61137,-0.11354 3.74675,-0.34061c1.13538,-0.22708 1.9907,-0.34061 2.56596,-0.34061c0.57526,0 0.95372,0.10597 1.13538,0.31791c0.18166,0.21194 0.27249,0.45415 0.27249,0.72664c0,0.27249 -0.09083,0.53741 -0.27249,0.79477c-0.18166,0.25735 -0.56012,0.46172 -1.13538,0.61311c-0.84775,0.18166 -2.01341,0.35575 -3.49697,0.52227c-1.48356,0.16652 -3.23962,0.38603 -5.26816,0.65852c-1.63495,0.24221 -3.03525,0.50714 -4.20091,0.79477c-1.16566,0.28763 -2.08153,0.43144 -2.74762,0.43144c-0.66609,0 -1.17323,-0.15138 -1.52141,-0.45415c-0.34818,-0.30277 -0.61311,-0.89317 -0.79477,-1.77119c-0.18166,-0.87803 -0.36332,-1.83932 -0.54498,-2.88387c-0.18166,-1.04455 -0.35575,-2.09667 -0.52227,-3.15636c-0.16652,-1.05969 -0.33304,-2.11938 -0.49957,-3.17906c-0.16652,-1.05969 -0.32548,-2.05882 -0.47686,-2.9974c-0.24221,1.63495 -0.54498,3.33045 -0.9083,5.0865c-0.36332,1.75605 -0.84018,3.47426 -1.43058,5.15463c-0.5904,1.68036 -1.3019,3.26989 -2.13451,4.7686c-0.83261,1.4987 -1.83932,2.80817 -3.02011,3.92842c-1.1808,1.12024 -2.55082,2.01341 -4.11008,2.6795c-1.55926,0.66609 -3.33802,0.99913 -5.33629,0.99913c-3.26989,0 -6.06293,-0.87046 -8.37911,-2.61137c-2.31618,-1.74092 -4.0798,-4.21604 -5.29087,-7.42539c-0.69637,-1.75605 -1.25649,-3.61808 -1.68036,-5.58607c-0.42388,-1.96799 -0.77206,-3.89057 -1.04455,-5.76773c-0.27249,-1.87716 -0.492,-3.62565 -0.65852,-5.24546c-0.16652,-1.61981 -0.34061,-2.9747 -0.52227,-4.06466c-0.18166,-1.12024 -0.41631,-2.05125 -0.70394,-2.79304c-0.28763,-0.74178 -0.61311,-1.32461 -0.97643,-1.74849c-0.36332,-0.42388 -0.76449,-0.71907 -1.2035,-0.8856c-0.43901,-0.16652 -0.90073,-0.24978 -1.38516,-0.24978c-0.48443,0 -1.0067,0.06812 -1.56682,0.20437c-0.56012,0.13625 -1.12024,0.28763 -1.68036,0.45415c-0.56012,0.16652 -1.09753,0.31791 -1.61224,0.45415c-0.51471,0.13625 -0.984,0.20437 -1.40787,0.20437c-0.27249,0 -0.55255,-0.08326 -0.84018,-0.24978c-0.28763,-0.16652 -0.43144,-0.492 -0.43144,-0.97643c0,-0.54498 0.24221,-0.91587 0.72664,-1.11267c0.48443,-0.1968 1.1051,-0.41631 1.86202,-0.65852c0.93858,-0.27249 2.05125,-0.68123 3.33802,-1.22621c1.28676,-0.54498 2.65679,-1.3019 4.11008,-2.27076c1.21107,-0.81747 2.21778,-1.64252 3.02011,-2.47513c0.80234,-0.83261 1.46842,-1.58953 1.99827,-2.27076c0.52984,-0.68123 0.96886,-1.24135 1.31704,-1.68036c0.34818,-0.43901 0.65852,-0.65852 0.93101,-0.65852z" data-paper-data="{&quot;elementType&quot;:&quot;letter&quot;,&quot;baseline&quot;:55.322265625,&quot;baselineProportion&quot;:1.0375457875457876,&quot;fontSize&quot;:100}"></path><path d="M397.12329,387.96283c0.24221,0 0.48443,0.38603 0.72664,1.15809c0.24221,0.77206 0.48443,1.77876 0.72664,3.02011c0.24221,1.24135 0.48443,2.67193 0.72664,4.29174c0.24221,1.61981 0.48443,3.26233 0.72664,4.92755l1.63495,11.44463c0.15138,-0.99913 0.41631,-2.14965 0.79477,-3.45156c0.37846,-1.3019 0.8856,-2.64922 1.52141,-4.04195c0.63581,-1.39273 1.40787,-2.75519 2.31618,-4.08737c0.9083,-1.33218 1.96042,-2.52811 3.15636,-3.5878c1.19593,-1.05969 2.54325,-1.91501 4.04195,-2.56596c1.4987,-0.65095 3.1715,-0.97643 5.01838,-0.97643c2.27076,0 4.23875,0.43144 5.90398,1.29433c1.66522,0.86289 3.04282,2.05882 4.13278,3.5878c1.08996,1.52898 1.8923,3.35316 2.40701,5.47253c0.51471,2.11938 0.77206,4.43555 0.77206,6.94853c0,2.27076 -0.12868,4.54909 -0.38603,6.83499c-0.25735,2.2859 -0.52984,4.53395 -0.81747,6.74416c-0.28763,2.21021 -0.56012,4.34472 -0.81747,6.40354c-0.25735,2.05882 -0.38603,3.9814 -0.38603,5.76773c0,1.05969 0.09083,1.98313 0.27249,2.77033c0.18166,0.7872 0.45415,1.51384 0.81747,2.17993c0.42388,0.63581 0.94615,1.18836 1.56682,1.65766c0.62067,0.46929 1.21107,0.9083 1.77119,1.31704c0.56012,0.40874 1.04455,0.81747 1.45329,1.22621c0.40874,0.40874 0.61311,0.84018 0.61311,1.29433c0,0.27249 -0.07569,0.50714 -0.22708,0.70394c-0.15138,0.1968 -0.40874,0.2952 -0.77206,0.2952c-0.54498,0 -1.14295,-0.20437 -1.7939,-0.61311c-0.65095,-0.40874 -1.45329,-0.92344 -2.40701,-1.54412c-0.95372,-0.62067 -2.09667,-1.28676 -3.42885,-1.99827c-1.33218,-0.7115 -2.95199,-1.37003 -4.85943,-1.97556c-1.42301,-0.48443 -2.85359,-0.86289 -4.29174,-1.13538c-1.43815,-0.27249 -3.11094,-0.45415 -5.01838,-0.54498c-1.05969,-0.09083 -1.58953,-0.3936 -1.58953,-0.9083c0,-0.57526 0.34818,-0.86289 1.04455,-0.86289c0.42388,0 1.01427,0 1.77119,0c0.75692,0 1.52898,-0.03028 2.31618,-0.09083c1.21107,-0.09083 2.21021,-0.46172 2.9974,-1.11267c0.7872,-0.65095 1.37759,-1.85445 1.77119,-3.61051c0.12111,-0.69637 0.24221,-1.58196 0.36332,-2.65679c0.12111,-1.07483 0.22708,-2.22535 0.31791,-3.45156c0.09083,-1.22621 0.16652,-2.47513 0.22708,-3.74675c0.06055,-1.27163 0.09083,-2.4827 0.09083,-3.63322c0,-1.02941 -0.01514,-2.21778 -0.04542,-3.56509c-0.03028,-1.34732 -0.12868,-2.74762 -0.2952,-4.20091c-0.16652,-1.45329 -0.42388,-2.8763 -0.77206,-4.26903c-0.34818,-1.39273 -0.85532,-2.63408 -1.52141,-3.72405c-0.66609,-1.08996 -1.51384,-1.97556 -2.54325,-2.65679c-1.02941,-0.68123 -2.2859,-1.02184 -3.76946,-1.02184c-1.27163,0 -2.42971,0.31791 -3.47426,0.95372c-1.04455,0.63581 -1.97556,1.52141 -2.79304,2.65679c-0.81747,1.13538 -1.51384,2.47513 -2.0891,4.01925c-0.57526,1.54412 -1.01427,3.23962 -1.31704,5.0865c-0.33304,1.87716 -0.55255,3.80731 -0.65852,5.79044c-0.10597,1.98313 -0.15895,3.95869 -0.15895,5.92668c0,1.66522 0.06055,3.26233 0.18166,4.7913c0.12111,1.52898 0.28763,2.93685 0.49957,4.22361c0.21194,1.28676 0.46929,2.42971 0.77206,3.42885c0.30277,0.99913 0.65095,1.78633 1.04455,2.36159c0.57526,0.7872 1.19593,1.37759 1.86202,1.77119c0.66609,0.3936 1.22621,0.66609 1.68036,0.81747c0.60554,0.18166 1.03698,0.34061 1.29433,0.47686c0.25735,0.13625 0.38603,0.32548 0.38603,0.56769c0,0.18166 -0.14381,0.34818 -0.43144,0.49957c-0.28763,0.15138 -0.76449,0.22708 -1.43058,0.22708c-0.63581,0 -1.33218,-0.05298 -2.0891,-0.15895c-0.75692,-0.10597 -1.54412,-0.21951 -2.36159,-0.34061c-0.81747,-0.12111 -1.66522,-0.23465 -2.54325,-0.34061c-0.87803,-0.10597 -1.74092,-0.15895 -2.58867,-0.15895c-0.84775,0 -1.71064,0.03028 -2.58867,0.09083c-0.87803,0.06055 -1.71821,0.12111 -2.52054,0.18166c-0.80234,0.06055 -1.53655,0.12111 -2.20264,0.18166c-0.66609,0.06055 -1.19593,0.09083 -1.58953,0.09083c-1.1808,0 -1.77119,-0.37846 -1.77119,-1.13538c0,-0.27249 0.0984,-0.50714 0.2952,-0.70394c0.1968,-0.1968 0.55255,-0.32548 1.06726,-0.38603c0.42388,-0.03028 0.80234,-0.06055 1.13538,-0.09083c0.33304,-0.03028 0.67366,-0.05298 1.02184,-0.06812c0.34818,-0.01514 0.7115,-0.03785 1.08996,-0.06812c0.37846,-0.03028 0.82504,-0.07569 1.33975,-0.13625c0.96886,-0.15138 1.62738,-0.50714 1.97556,-1.06726c0.34818,-0.56012 0.52227,-1.32461 0.52227,-2.29347c0,-1.66522 -0.14381,-3.69377 -0.43144,-6.08564c-0.28763,-2.39187 -0.67366,-5.02595 -1.15809,-7.90225c-0.48443,-2.8763 -1.06726,-5.92668 -1.74849,-9.15116c-0.68123,-3.22448 -1.4003,-6.51708 -2.15722,-9.87781c-0.36332,-1.72578 -0.77963,-3.01254 -1.24892,-3.86029c-0.46929,-0.84775 -1.14295,-1.27163 -2.02098,-1.27163c-0.45415,0 -0.92344,0.08326 -1.40787,0.24978c-0.48443,0.16652 -0.96129,0.34818 -1.43058,0.54498c-0.46929,0.1968 -0.91587,0.37846 -1.33975,0.54498c-0.42388,0.16652 -0.81747,0.24978 -1.1808,0.24978c-0.57526,0 -0.86289,-0.24221 -0.86289,-0.72664c0,-0.3936 0.15895,-0.67366 0.47686,-0.84018c0.31791,-0.16652 0.65852,-0.32548 1.02184,-0.47686c0.84775,-0.33304 1.76362,-0.75692 2.74762,-1.27163c0.984,-0.51471 2.05125,-1.21107 3.20177,-2.0891c1.12024,-0.87803 2.11938,-1.81661 2.9974,-2.81574c0.87803,-0.99913 1.63495,-1.92258 2.27076,-2.77033c0.63581,-0.84775 1.15052,-1.55169 1.54412,-2.11181c0.3936,-0.56012 0.69637,-0.84018 0.9083,-0.84018z" data-paper-data="{&quot;elementType&quot;:&quot;letter&quot;,&quot;baseline&quot;:62.890625,&quot;baselineProportion&quot;:0.9647940074906367,&quot;fontSize&quot;:100}"></path></g></g></g></g><g clip-path="url(#clip-1)" data-paper-data="{&quot;elementType&quot;:&quot;emblem&quot;}" fill="url(#color-1)"><path d="M319.3717,198.32329c-2.31239,-4.95512 -7.59785,-15.1957 -9.24956,-16.84741c-0.99102,-0.66068 -2.97307,-2.97307 -6.60683,-18.82946c-1.98205,-8.58888 -3.30341,-17.50809 -3.63376,-22.46322c-0.66068,-9.24956 -4.95512,-18.49912 -6.27649,-20.81151c-1.98205,-2.97307 -7.92819,-10.90127 -7.92819,-10.90127l-2.64273,-3.63376c-1.32137,-0.33034 -2.31239,-0.33034 -2.97307,-0.33034c-8.58888,0 -24.44526,3.30341 -28.40936,3.30341c-3.9641,0 -23.1239,-3.30341 -31.71278,-3.30341c-0.99102,0 -1.98205,0 -2.97307,0.33034l-2.64273,3.63376c0,0 -6.27649,8.25854 -7.92819,10.90127c-1.65171,2.31239 -5.94615,11.56195 -6.27649,20.81151c-0.33034,4.95512 -1.65171,13.87434 -3.63376,22.46322c-3.30341,15.85639 -5.6158,17.83844 -6.60683,18.82946c-1.65171,1.65171 -7.26751,12.55297 -9.24956,17.17775c0,0.33034 -0.33034,0.66068 -0.33034,0.66068l-1.32137,3.9641c0,0.33034 -0.33034,0.66068 -0.33034,1.32137c8.25854,10.90127 20.48117,24.44526 21.80253,28.07902c1.65171,5.28546 8.58888,19.49014 16.84741,20.48117c8.25854,0.99102 29.40039,-3.30341 34.68585,-2.31239c5.28546,-0.66068 22.79356,3.63376 31.38243,2.31239c8.58888,-1.32137 15.1957,-15.1957 16.84741,-20.48117c0.99102,-3.63376 13.21366,-16.84741 21.47219,-27.74868c-0.33034,-0.99102 -0.33034,-1.32137 -0.66068,-1.65171zM213.99279,179.16349c0,0 -6.93717,-2.31239 -7.92819,-5.94615c-0.99102,-3.63376 -0.33034,-7.59785 0.99102,-10.24058c1.32137,-2.31239 3.9641,-5.28546 3.9641,-5.28546c0,0 5.28546,0.33034 5.6158,7.26751c0.33034,6.93717 -2.64273,14.20468 -2.64273,14.20468zM252.31239,244.57109c0,0.99102 2.31239,2.31239 2.64273,2.64273c0.33034,0.66068 5.28546,2.64273 5.28546,2.64273h-8.58888h-8.58888c0,0 4.62478,-1.98205 5.28546,-2.64273c0.33034,-0.66068 2.64273,-1.98205 2.64273,-2.64273c0,-0.66068 0.33034,-10.57093 0,-11.23161c-0.33034,-0.66068 -10.57093,-9.91024 -10.57093,-9.91024l11.56195,6.93717l11.56195,-6.93717c0,0 -10.24058,9.24956 -10.57093,9.91024c-0.99102,0.66068 -0.66068,10.24058 -0.66068,11.23161zM296.90848,172.887c-0.66068,3.9641 -7.92819,5.94615 -7.92819,5.94615c0,0 -2.97307,-7.59785 -2.97307,-14.20468c0.33034,-6.93717 5.6158,-7.26751 5.6158,-7.26751c0,0 2.64273,2.64273 3.9641,5.28546c1.65171,2.64273 2.31239,6.60683 1.32137,10.24058z"></path><path d="M196.48469,140.1832c0.66068,-9.5799 4.95512,-19.49014 6.93717,-22.46322c1.98205,-2.97307 8.25854,-11.23161 8.25854,-11.23161l-19.82048,9.5799c0,0 -2.97307,1.98205 -6.93717,4.29444c-6.27649,3.9641 -15.1957,9.5799 -16.84741,10.57093c-2.64273,1.32137 -31.71278,51.20292 -31.71278,54.50633c0,3.63376 -22.46322,62.43453 -22.79356,64.08623c-0.33034,1.65171 -8.91922,24.44526 -8.91922,24.44526c0,0 -2.64273,5.94615 1.65171,11.23161c3.63376,4.29444 9.24956,7.26751 13.21366,7.59785c-0.66068,-3.30341 -3.9641,-18.49912 -0.66068,-31.71278c0.33034,-0.99102 0.33034,-0.99102 14.86536,-24.44526c5.28546,-8.58888 10.57093,-16.84741 11.56195,-18.82946c0.66068,-0.99102 0.99102,-1.98205 15.1957,-10.57093c6.60683,-3.9641 13.21366,-7.92819 13.21366,-7.92819l0.33034,-0.33034l2.64273,-1.65171c3.30341,-6.60683 7.92819,-16.51707 10.24058,-18.82946c3.63376,-2.64273 8.91922,-28.7397 9.5799,-38.3196z"></path><path d="M395.35022,273.97147c0,0 -8.58888,-22.79356 -8.91922,-24.44526c-0.33034,-1.32137 -22.79356,-60.45248 -22.79356,-64.08623c0,-3.63376 -29.40039,-53.18497 -31.71278,-54.83667c-1.65171,-0.99102 -10.57093,-6.60683 -16.84741,-10.57093c-3.9641,-2.31239 -6.93717,-4.29444 -6.93717,-4.29444l-19.82048,-9.5799c0,0 6.27649,8.25854 8.25854,11.23161c1.98205,2.97307 6.27649,12.88331 6.93717,22.46322c0.66068,9.5799 5.6158,35.67687 8.91922,38.98029c2.31239,2.31239 7.26751,12.55297 10.57093,19.1598l2.64273,1.65171l0.33034,0.33034c0,0 6.60683,3.9641 13.21366,7.92819c14.20468,8.58888 14.53502,9.5799 15.1957,10.57093c0.99102,1.98205 6.27649,9.91024 11.56195,18.82946c14.53502,23.1239 14.53502,23.45424 14.86536,24.44526c3.63376,13.21366 0.33034,28.40936 -0.66068,31.71278c4.29444,-0.33034 9.91024,-3.30341 13.544,-7.59785c4.29444,-5.6158 1.65171,-11.89229 1.65171,-11.89229z"></path><path d="M148.25485,219.79548c-0.33034,0.66068 -1.32137,1.98205 -2.31239,3.63376c-6.60683,10.57093 -23.45424,37.65892 -23.78458,38.3196c-3.63376,13.87434 0.66068,30.72175 0.66068,30.72175c0,0 0.33034,0 0.66068,-0.33034c0.33034,-0.33034 0.99102,-0.66068 1.32137,-0.99102c6.60683,-3.9641 26.42731,-16.51707 29.07004,-22.13287c2.64273,-5.6158 15.1957,-46.57814 19.82048,-61.4435c0.33034,-0.99102 0.66068,-1.98205 0.66068,-2.64273c0.33034,-1.65171 0.66068,-2.64273 0.66068,-2.64273c0,0 -0.33034,0.33034 -1.32137,0.66068c-4.62478,3.63376 -24.77561,15.52605 -25.43629,16.84741z"></path><path d="M351.74515,219.79548c-0.99102,-1.65171 -20.15083,-12.88331 -25.76663,-16.18673c-0.99102,-0.66068 -1.65171,-0.99102 -1.65171,-0.99102c0,0 0.99102,2.97307 2.31239,7.92819c4.95512,16.51707 16.51707,53.18497 18.82946,58.47043c0.66068,1.32137 1.98205,2.97307 3.9641,4.62478c2.31239,1.98205 5.28546,4.29444 8.25854,6.60683c6.27649,4.62478 13.544,9.24956 17.17775,11.23161c1.32137,0.66068 1.98205,1.32137 1.98205,1.32137c0,0 0,0 0,-0.33034c0.66068,-2.31239 3.9641,-17.50809 0.66068,-30.39141c-0.33034,-0.99102 -23.45424,-37.65892 -25.76663,-42.2837z"></path></g></g></svg>